HIERARCHY
ROOT Hips
{
  OFFSET 5.84602e-005 68.8428 3.50346
  CHANNELS 6 Xposition Yposition Zposition Zrotation Xrotation Yrotation
  JOINT Spine
  {
    OFFSET 0 8.597 -4.6522
    CHANNELS 3 Zrotation Xrotation Yrotation
    JOINT Spine1
    {
      OFFSET 0 7.8454 0.4098
      CHANNELS 3 Zrotation Xrotation Yrotation
      JOINT Spine2
      {
        OFFSET 0 9.7078 -2.1609
        CHANNELS 3 Zrotation Xrotation Yrotation
        JOINT Neck
        {
          OFFSET 0 21.8761 -0.4549
          CHANNELS 3 Zrotation Xrotation Yrotation
          JOINT Head
          {
            OFFSET 0 12.3537 3.3602
            CHANNELS 3 Zrotation Xrotation Yrotation
            End Site
            {
              OFFSET 0.0001 18.9506 0.5657
            }
          }
        }
        JOINT LeftShoulder
        {
          OFFSET 2.2086 21.1115 7.2329
          CHANNELS 3 Zrotation Xrotation Yrotation
          JOINT LeftArm
          {
            OFFSET 13.1193 3.0282 -4.8998
            CHANNELS 3 Zrotation Xrotation Yrotation
            JOINT LeftForeArm
            {
              OFFSET 27.4081 -0.0973053 -0.2375
              CHANNELS 3 Zrotation Xrotation Yrotation
              JOINT LeftHand
              {
                OFFSET 22.8641 0.0662994 -0.1369
                CHANNELS 3 Zrotation Xrotation Yrotation
                JOINT LeftHandIndex1
                {
                  OFFSET 8.8614 0.775009 2.4612
                  CHANNELS 3 Zrotation Xrotation Yrotation
                  JOINT LeftHandIndex2
                  {
                    OFFSET 3.3146 -0.808304 0.5841
                    CHANNELS 3 Zrotation Xrotation Yrotation
                    JOINT LeftHandIndex3
                    {
                      OFFSET 2.2628 -0.552002 0.3989
                      CHANNELS 3 Zrotation Xrotation Yrotation
                      End Site
                      {
                        OFFSET 1.6102 -0.4807 0.2612
                      }
                    }
                  }
                }
                JOINT LeftHandMiddle1
                {
                  OFFSET 8.9937 0.895004 0.2143
                  CHANNELS 3 Zrotation Xrotation Yrotation
                  JOINT LeftHandMiddle2
                  {
                    OFFSET 4.0984 0.0113983 -0.0242
                    CHANNELS 3 Zrotation Xrotation Yrotation
                    JOINT LeftHandMiddle3
                    {
                      OFFSET 2.2716 0.00689697 -0.0138001
                      CHANNELS 3 Zrotation Xrotation Yrotation
                      End Site
                      {
                        OFFSET 2.0404 -0.1441 0.0027
                      }
                    }
                  }
                }
                JOINT LeftHandRing1
                {
                  OFFSET 8.5234 0.597198 -2.0164
                  CHANNELS 3 Zrotation Xrotation Yrotation
                  JOINT LeftHandRing2
                  {
                    OFFSET 3.7188 -0.188293 -0.2328
                    CHANNELS 3 Zrotation Xrotation Yrotation
                    JOINT LeftHandRing3
                    {
                      OFFSET 2.1191 -0.106598 -0.1332
                      CHANNELS 3 Zrotation Xrotation Yrotation
                      End Site
                      {
                        OFFSET 1.8737 -0.2304 -0.0886
                      }
                    }
                  }
                }
                JOINT LeftHandPinky1
                {
                  OFFSET 7.9094 -0.601089 -3.4825
                  CHANNELS 3 Zrotation Xrotation Yrotation
                  JOINT LeftHandPinky2
                  {
                    OFFSET 2.2874 -0.477005 -0.6314
                    CHANNELS 3 Zrotation Xrotation Yrotation
                    JOINT LeftHandPinky3
                    {
                      OFFSET 1.6774 -0.349396 -0.4633
                      CHANNELS 3 Zrotation Xrotation Yrotation
                      End Site
                      {
                        OFFSET 1.4888 -0.4091 -0.3416
                      }
                    }
                  }
                }
                JOINT LeftHandThumb1
                {
                  OFFSET 1.833 -1.3875 1.3896
                  CHANNELS 3 Zrotation Xrotation Yrotation
                  JOINT LeftHandThumb2
                  {
                    OFFSET 3.4129 -1.121 2.5732
                    CHANNELS 3 Zrotation Xrotation Yrotation
                    JOINT LeftHandThumb3
                    {
                      OFFSET 2.2474 -0.804199 1.6192
                      CHANNELS 3 Zrotation Xrotation Yrotation
                      End Site
                      {
                        OFFSET 1.6527 -0.5689 1.1317
                      }
                    }
                  }
                }
              }
            }
          }
        }
        JOINT RightShoulder
        {
          OFFSET -2.2086 21.1115 7.2329
          CHANNELS 3 Zrotation Xrotation Yrotation
          JOINT RightArm
          {
            OFFSET -13.1216 3.0287 -4.9007
            CHANNELS 3 Zrotation Xrotation Yrotation
            JOINT RightForeArm
            {
              OFFSET -27.4081 -0.0973053 -0.2375
              CHANNELS 3 Zrotation Xrotation Yrotation
              JOINT RightHand
              {
                OFFSET -22.8641 0.0664063 -0.1369
                CHANNELS 3 Zrotation Xrotation Yrotation
                JOINT RightHandIndex1
                {
                  OFFSET -8.8614 0.774994 2.4612
                  CHANNELS 3 Zrotation Xrotation Yrotation
                  JOINT RightHandIndex2
                  {
                    OFFSET -3.3146 -0.808304 0.5841
                    CHANNELS 3 Zrotation Xrotation Yrotation
                    JOINT RightHandIndex3
                    {
                      OFFSET -2.2628 -0.552002 0.3989
                      CHANNELS 3 Zrotation Xrotation Yrotation
                      End Site
                      {
                        OFFSET -1.6102 -0.4807 0.2612
                      }
                    }
                  }
                }
                JOINT RightHandMiddle1
                {
                  OFFSET -8.9937 0.894989 0.2143
                  CHANNELS 3 Zrotation Xrotation Yrotation
                  JOINT RightHandMiddle2
                  {
                    OFFSET -4.0984 0.0113983 -0.0242
                    CHANNELS 3 Zrotation Xrotation Yrotation
                    JOINT RightHandMiddle3
                    {
                      OFFSET -2.2716 0.00691223 -0.0138001
                      CHANNELS 3 Zrotation Xrotation Yrotation
                      End Site
                      {
                        OFFSET -2.0404 -0.1441 0.0027
                      }
                    }
                  }
                }
                JOINT RightHandRing1
                {
                  OFFSET -8.5234 0.597198 -2.0164
                  CHANNELS 3 Zrotation Xrotation Yrotation
                  JOINT RightHandRing2
                  {
                    OFFSET -3.7188 -0.188309 -0.2328
                    CHANNELS 3 Zrotation Xrotation Yrotation
                    JOINT RightHandRing3
                    {
                      OFFSET -2.1191 -0.106598 -0.1332
                      CHANNELS 3 Zrotation Xrotation Yrotation
                      End Site
                      {
                        OFFSET -1.8737 -0.2304 -0.0886
                      }
                    }
                  }
                }
                JOINT RightHandPinky1
                {
                  OFFSET -7.9094 -0.601105 -3.4825
                  CHANNELS 3 Zrotation Xrotation Yrotation
                  JOINT RightHandPinky2
                  {
                    OFFSET -2.2874 -0.477005 -0.6314
                    CHANNELS 3 Zrotation Xrotation Yrotation
                    JOINT RightHandPinky3
                    {
                      OFFSET -1.6774 -0.349396 -0.4633
                      CHANNELS 3 Zrotation Xrotation Yrotation
                      End Site
                      {
                        OFFSET -1.4888 -0.4091 -0.3416
                      }
                    }
                  }
                }
                JOINT RightHandThumb1
                {
                  OFFSET -1.833 -1.38751 1.3896
                  CHANNELS 3 Zrotation Xrotation Yrotation
                  JOINT RightHandThumb2
                  {
                    OFFSET -3.41299 -1.12099 2.5732
                    CHANNELS 3 Zrotation Xrotation Yrotation
                    JOINT RightHandThumb3
                    {
                      OFFSET -2.24741 -0.804108 1.6192
                      CHANNELS 3 Zrotation Xrotation Yrotation
                      End Site
                      {
                        OFFSET -1.6527 -0.5689 1.1317
                      }
                    }
                  }
                }
              }
            }
          }
        }
      }
    }
  }
  JOINT RightUpLeg
  {
    OFFSET -9.1966 3.8861 -0.7581
    CHANNELS 3 Zrotation Xrotation Yrotation
    JOINT RightLeg
    {
      OFFSET -0.7359 -41.0265 0
      CHANNELS 3 Zrotation Xrotation Yrotation
      JOINT RightFoot
      {
        OFFSET 0 -40.2855 0
        CHANNELS 3 Zrotation Xrotation Yrotation
        JOINT RightToeBase
        {
          OFFSET 0 -5.6122 11.7359
          CHANNELS 3 Zrotation Xrotation Yrotation
          End Site
          {
            OFFSET 0 0 7.8731
          }
        }
      }
    }
  }
  JOINT LeftUpLeg
  {
    OFFSET 9.1965 3.8864 -0.7581
    CHANNELS 3 Zrotation Xrotation Yrotation
    JOINT LeftLeg
    {
      OFFSET 0.7359 -41.0268 0
      CHANNELS 3 Zrotation Xrotation Yrotation
      JOINT LeftFoot
      {
        OFFSET 0 -40.2855 0
        CHANNELS 3 Zrotation Xrotation Yrotation
        JOINT LeftToeBase
        {
          OFFSET 0 -5.6122 11.7359
          CHANNELS 3 Zrotation Xrotation Yrotation
          End Site
          {
            OFFSET 0 0 7.8731
          }
        }
      }
    }
  }
}
MOTION
Frames:	4
Frame Time:	0.0333333
3.01675 28.5612 12.6516 -90.001 -72.2332 179.999 -0.224927 6.17899 -0.708628 -0.375762 12.3603 -1.40506 -0.375755 12.3603 -1.40507 13.2257 10.5697 -2.47258 9.39205 -16.5638 2.69808 24.7408 -32.3221 -38.009 -70.336 -51.7954 -73.2876 -17.8904 10.4802 -24.8078 -19.9374 -1.11327 1.99628 1.48537e-006 -1.81888e-007 4.1558e-006 3.18055e-015 1.27222e-014 -5.56597e-015 2.82059e-006 8.85737e-007 1.33522e-006 1.48537e-006 -1.81888e-007 4.1558e-006 -0.0145722 -8.32535e-005 4.59693e-006 2.82045e-006 8.85566e-007 1.33533e-006 1.48537e-006 -1.81888e-007 4.1558e-006 -0.0187675 -0.00117895 6.26401e-005 1.80415e-006 4.0339e-007 -1.87121e-007 1.48537e-006 -1.81888e-007 4.1558e-006 -0.0122523 -0.00324559 0.000679155 2.82052e-006 8.85547e-007 1.33524e-006 1.48537e-006 -1.81888e-007 4.1558e-006 3.18055e-015 1.27222e-014 -5.56597e-015 2.82059e-006 8.85737e-007 1.33522e-006 -31.7392 0.831304 -8.7113 -42.4605 -11.2887 58.9658 1.04757 0.317328 27.2937 6.99683 1.1332e-006 -2.08827e-008 1.59028e-015 -3.18055e-015 7.95139e-016 1.59028e-015 -4.77083e-015 1.59028e-015 2.98177e-015 -3.18055e-015 7.95139e-016 1.59028e-015 -3.18055e-015 7.95139e-016 0.0150037 -8.90306e-005 3.50594e-007 5.56597e-015 0 -7.95139e-016 1.59028e-015 -3.18055e-015 7.95139e-016 0.0189938 -0.00119017 -5.92903e-005 1.78906e-015 0 -2.38542e-015 1.59028e-015 -3.18055e-015 7.95139e-016 0.0122661 -0.00324662 -0.000675714 2.38542e-015 1.59028e-015 2.38542e-015 1.59028e-015 -3.18055e-015 7.95139e-016 1.59028e-015 -4.77083e-015 1.59028e-015 2.98177e-015 -3.18055e-015 7.95139e-016 17.0964 2.37283 -0.459521 -144.348 65.124 142.509 -4.35424 6.49354 -1.51228 -2.30956e-008 -1.78868e-007 1.14134e-007 80.9954 -68.9519 99.7183 -168.661 45.3428 168.552 17.7257 -5.68506 -2.66053 -3.18055e-015 3.18055e-015 2.38542e-015 
2.9519 28.5615 12.6289 -90.0009 -71.996 179.999 -0.226308 6.25234 -0.708564 -0.377663 12.5073 -1.40478 -0.377636 12.5073 -1.40478 13.2325 10.7112 -2.50665 9.40317 -16.7849 2.73631 24.7948 -32.6969 -37.8555 -70.36 -51.793 -73.0636 -17.9452 10.5057 -24.8566 -20.1102 -1.13106 2.02123 3.18055e-015 -3.18055e-015 7.95139e-016 5.33057e-006 1.18305e-006 7.01622e-006 -1.33537e-006 -1.07025e-006 2.81972e-006 3.18055e-015 -3.18055e-015 7.95139e-016 -0.0146048 -8.63326e-005 8.36193e-006 -1.33548e-006 -1.07061e-006 2.81959e-006 3.18055e-015 -3.18055e-015 7.95139e-016 -0.0187514 -0.00117783 7.04962e-005 -1.33549e-006 -1.07072e-006 2.81956e-006 3.18055e-015 -3.18055e-015 7.95139e-016 -0.0122641 -0.00324835 0.000684466 -3.07147e-007 -5.87153e-007 4.34534e-006 3.18055e-015 -3.18055e-015 7.95139e-016 5.33057e-006 1.18305e-006 7.01622e-006 -1.33537e-006 -1.07025e-006 2.81972e-006 -31.7393 0.831289 -8.71129 -42.4605 -11.2886 58.9658 1.04757 0.317324 27.2937 6.99683 3.88592e-006 1.46951e-008 -1.59028e-015 -3.18055e-015 2.38542e-015 3.97569e-015 1.59028e-015 1.59028e-015 9.93923e-016 -1.59028e-015 1.59028e-015 -1.59028e-015 -3.18055e-015 2.38542e-015 0.0149886 -8.81096e-005 4.56292e-007 -1.98785e-015 1.59028e-015 -7.95139e-016 -1.59028e-015 -3.18055e-015 2.38542e-015 0.0189863 -0.00119057 -6.02596e-005 2.38542e-015 6.36111e-015 -3.18055e-015 -1.59028e-015 -3.18055e-015 2.38542e-015 0.01226 -0.00324493 -0.000674966 -3.97569e-016 4.77083e-015 -7.95139e-016 -1.59028e-015 -3.18055e-015 2.38542e-015 3.97569e-015 1.59028e-015 1.59028e-015 9.93923e-016 -1.59028e-015 1.59028e-015 17.0952 2.67908 -0.525629 -144.27 65.183 142.441 -4.35467 6.49442 -1.51055 -1.93266e-006 1.74765e-006 1.21421e-007 80.0758 -68.7647 98.8796 -168.691 45.2933 168.574 17.8961 -5.81673 -2.71587 -0 -3.18055e-015 -0 
3.01675 28.5612 12.6516 -90.001 -72.2332 179.999 -0.224927 6.17899 -0.708628 -0.375762 12.3603 -1.40506 -0.375755 12.3603 -1.40507 13.2257 10.5697 -2.47258 9.39205 -16.5638 2.69808 24.7821 -32.3312 -38.0516 -70.336 -51.7954 -73.2876 -17.8904 10.4802 -24.8078 -19.9374 -1.11327 1.99628 5.97604e-007 2.63595e-006 5.22496e-006 5.46616e-006 -3.02241e-006 -6.25163e-006 3.64761e-006 3.19094e-006 7.87593e-006 5.97604e-007 2.63595e-006 5.22496e-006 -0.0145834 -8.96366e-005 -4.03872e-006 3.64626e-006 3.18993e-006 7.87633e-006 5.97604e-007 2.63595e-006 5.22496e-006 -0.0187333 -0.00118134 5.29435e-005 3.64595e-006 3.18954e-006 7.87642e-006 5.97604e-007 2.63595e-006 5.22496e-006 -0.0122302 -0.00324141 0.000666079 5.97701e-007 2.63537e-006 5.22523e-006 5.97604e-007 2.63595e-006 5.22496e-006 5.46616e-006 -3.02241e-006 -6.25163e-006 3.64761e-006 3.19094e-006 7.87593e-006 -31.7392 0.831298 -8.7113 -42.4605 -11.2887 58.9658 1.04757 0.317328 27.2937 6.99683 7.09907e-007 3.25955e-007 -5.96354e-016 1.59028e-015 -0 -5.6424e-007 8.78473e-007 6.87397e-009 1.59028e-015 -1.59028e-015 -0 -5.96354e-016 1.59028e-015 -0 0.0149904 -8.87854e-005 -9.04721e-008 2.20695e-032 -1.59028e-015 7.95139e-016 -5.96354e-016 1.59028e-015 -0 0.0189937 -0.00119023 -5.99217e-005 4.77083e-015 1.59028e-015 -7.95139e-016 -5.96354e-016 1.59028e-015 -0 0.0122394 -0.00324004 -0.000674505 -5.05774e-007 -1.96142e-008 5.34081e-008 -5.96354e-016 1.59028e-015 -0 -5.6424e-007 8.78473e-007 6.87397e-009 1.59028e-015 -1.59028e-015 -0 17.0964 2.37283 -0.459521 -144.348 65.124 142.509 -4.35422 6.49354 -1.51228 1.30344e-007 6.16671e-007 -1.40028e-006 80.9954 -68.9519 99.7183 -168.661 45.3429 168.552 17.7257 -5.68506 -2.66054 -3.18055e-015 6.36111e-015 1.59028e-015 
3.15976 28.5605 12.7012 -90.0011 -72.7552 179.998 -0.221927 6.01728 -0.708813 -0.371612 12.0368 -1.40578 -0.371608 12.0368 -1.40579 13.2123 10.2585 -2.39814 9.36844 -16.0772 2.61434 24.7366 -31.523 -38.4564 -70.2831 -51.7994 -73.7803 -17.7696 10.4241 -24.7004 -19.5571 -1.0742 1.94132 -1.59028e-015 6.36111e-015 7.95139e-016 -4.73741e-007 6.4811e-007 -2.63188e-006 4.77083e-015 3.18055e-015 7.95139e-016 -1.59028e-015 6.36111e-015 7.95139e-016 -0.0146496 -8.73925e-005 -1.16898e-006 1.59028e-015 0 9.54166e-015 -1.59028e-015 6.36111e-015 7.95139e-016 -0.0187058 -0.00117124 5.84153e-005 3.18055e-015 -3.18055e-015 -7.95139e-016 -1.59028e-015 6.36111e-015 7.95139e-016 -0.0123198 -0.00325833 0.000676053 3.18055e-015 0 3.97569e-015 -1.59028e-015 6.36111e-015 7.95139e-016 -4.73741e-007 6.4811e-007 -2.63188e-006 4.77083e-015 3.18055e-015 7.95139e-016 -31.7392 0.831299 -8.7113 -42.4605 -11.2887 58.9658 1.04757 0.317323 27.2937 6.99683 -3.53934e-007 -3.06928e-007 -4.17448e-015 1.59028e-015 -0 -4.57205e-015 0 -0 -3.37934e-015 0 -0 -4.17448e-015 1.59028e-015 -0 0.0150062 -9.119e-005 4.97639e-007 -2.98177e-015 -4.77083e-015 -0 -4.17448e-015 1.59028e-015 -0 0.0190068 -0.00119303 -5.97572e-005 -2.78299e-015 0 -7.95139e-016 -4.17448e-015 1.59028e-015 -0 0.0123154 -0.00325906 -0.000678796 -3.37934e-015 1.59028e-015 -0 -4.17448e-015 1.59028e-015 -0 -4.57205e-015 0 -0 -3.37934e-015 0 -0 17.1013 1.69903 -0.313987 -144.518 64.9943 142.659 -4.35339 6.4916 -1.51612 -1.64836e-006 4.94786e-008 1.06478e-006 83.0743 -69.3465 101.622 -168.595 45.4516 168.503 17.3501 -5.39548 -2.5384 -3.18055e-015 0 -2.38542e-015 
